<?xml version="1.0" encoding="utf-8"?>
<!-- Generator: Adobe Illustrator 21.1.0, SVG Export Plug-In . SVG Version: 6.00 Build 0)  -->
<svg version="1.1" id="Layer_1" xmlns="http://www.w3.org/2000/svg" xmlns:xlink="http://www.w3.org/1999/xlink" x="0px" y="0px"
	 viewBox="0 0 50 50" style="enable-background:new 0 0 50 50;" xml:space="preserve">
<style type="text/css">
	.st0{fill:#C44C45;}
	.st1{fill:#FFFFFF;}
	.st2{font-family:'OpenSans-Bold';}
	.st3{font-size:5.877px;}
</style>
<g>
	<path class="st0" d="M863.4-1.6c0-90.1-73.1-163.2-163.2-163.2S537-91.8,537-1.6c0,120.8,138.2,200.6,161,212.9
		c2,1.1,4.3,1.1,6.3,0C726.9,198.6,863.4,117.3,863.4-1.6z"/>
	<circle class="st0" cx="700.2" cy="-4.5" r="117.8"/>
</g>
<g>
	<path class="st0" d="M25.8,0.4c-9.8,0-17.8,8-17.8,17.8c0,13.1,15,21.8,17.5,23.2c0.2,0.1,0.5,0.1,0.7,0
		c2.5-1.4,17.3-10.2,17.3-23.2C43.6,8.3,35.6,0.4,25.8,0.4z M25.8,30c-6.8,0-12.4-5.5-12.4-12.4S19,5.3,25.8,5.3s12.4,5.5,12.4,12.4
		S32.7,30,25.8,30z"/>
	<g>
		<g>
			<path class="st0" d="M20.1,12.5c-1.1,1.2,0.6,3.6,1.5,4.5c0.3,0.3,0.6,0.5,1,0.6c0.4,0.1,0.8,0.1,1.2,0l0.2,0l3.8,4
				c1.3,1.4,2,1.3,2.4,1c0.4-0.4,0.3-1.2-1-2.3c0,0-4-3.8-4-3.8l0-0.2c0.1-0.4,0.1-0.8,0-1.2c-0.1-0.4-0.3-0.7-0.6-1
				C23.6,13.1,21.3,11.3,20.1,12.5z"/>
			<g>
				<path class="st0" d="M22.4,23.1c-0.3,0-0.5-0.1-0.7-0.3c-0.2-0.2-0.3-0.5-0.3-0.8c0-0.6,0.5-1.3,1.4-2.1l3.6-3.4l-0.2-0.7
					c-0.1-0.5,0-1.1,0.4-1.4l3.7-3.5c0.1-0.1,0.3-0.2,0.4-0.2c0.2,0,0.3,0.1,0.5,0.2c0.3,0.2,0.3,0.7,0,0.9l-2.4,2.6c0,0,0,0,0,0.1
					c0,0,0,0,0,0c0,0,0,0,0,0l2.6-2.4c0.1-0.1,0.3-0.2,0.5-0.2c0.1,0,0.3,0,0.3,0.1l0,0c0.1,0,0.1,0.1,0.2,0.2l0,0
					c0.2,0.3,0.1,0.6-0.1,0.8l-2.4,2.6c0,0,0,0,0,0c0,0,0,0,0,0c0,0,0,0,0,0c0,0,0,0,0,0l2.6-2.4c0.1-0.1,0.3-0.2,0.4-0.2
					c0.2,0,0.3,0.1,0.5,0.2c0.3,0.3,0.3,0.7,0,0.9L30,17.8c-0.3,0.3-0.7,0.5-1.1,0.5l0,0c-0.1,0-0.2,0-0.3,0l-0.7-0.2l-3.4,3.6
					C23.6,22.6,22.9,23.1,22.4,23.1z"/>
				<path class="st1" d="M30.7,11c0.1,0,0.2,0,0.3,0.1c0.2,0.1,0.2,0.4,0,0.5l-2.4,2.6c-0.1,0.1-0.1,0.3,0,0.4c0,0,0,0,0,0
					c0.1,0.1,0.1,0.1,0.2,0.1c0.1,0,0.2,0,0.2-0.1l2.6-2.4c0.1-0.1,0.2-0.1,0.3-0.1c0.1,0,0.1,0,0.2,0.1c0,0,0.1,0.1,0.1,0.1
					c0.1,0.2,0.1,0.3-0.1,0.5l-2.4,2.6c0,0,0,0,0,0c-0.1,0.1-0.1,0.3,0,0.4c0.1,0,0.1,0.1,0.2,0.1s0.2,0,0.2-0.1l2.6-2.4
					c0.1-0.1,0.2-0.1,0.3-0.1c0.1,0,0.2,0,0.3,0.1c0.1,0.1,0.2,0.4,0,0.5l-3.5,3.7c-0.2,0.3-0.5,0.4-0.9,0.4c-0.1,0-0.2,0-0.3,0
					l-0.8-0.2l-3.5,3.7c0,0,0,0,0,0c-0.9,1-1.5,1.3-1.9,1.3c-0.3,0-0.4-0.1-0.5-0.2c-0.2-0.3-0.6-1,1.1-2.4l3.7-3.5l-0.2-0.8
					c-0.1-0.4,0-0.9,0.3-1.2l3.7-3.5C30.6,11.1,30.6,11,30.7,11 M30.7,10.5L30.7,10.5c-0.2,0-0.5,0.1-0.6,0.3l-3.7,3.5
					c-0.5,0.4-0.7,1.1-0.5,1.7l0.1,0.5l-3.5,3.3c-0.9,0.8-1.4,1.6-1.4,2.2c0,0.4,0.1,0.7,0.3,1c0.3,0.3,0.6,0.4,0.9,0.4
					c0.7,0,1.4-0.5,2.3-1.4l0,0c0,0,0,0,0,0l3.3-3.5l0.5,0.1c0.1,0,0.3,0.1,0.4,0.1c0.5,0,0.9-0.2,1.3-0.6l3.5-3.7
					c0.3-0.4,0.3-0.9,0-1.3c-0.2-0.2-0.4-0.3-0.7-0.3c-0.1,0-0.2,0-0.2,0c0.1-0.2,0-0.5-0.1-0.7l0,0l0,0c-0.1-0.1-0.1-0.2-0.2-0.2
					l0,0l0,0c-0.2-0.1-0.3-0.1-0.5-0.1c-0.1,0-0.2,0-0.2,0c0.1-0.3,0-0.7-0.3-0.9C31.2,10.6,31,10.5,30.7,10.5L30.7,10.5L30.7,10.5z
					"/>
			</g>
		</g>
	</g>
	<g>
		<text transform="matrix(1 0 0 1 5 47.9055)" class="st0 st2 st3">CarritoFajitas</text>
	</g>
</g>
</svg>
